<svg width="40" height="44" viewBox="0 0 40 44" fill="none" xmlns="http://www.w3.org/2000/svg">
<path d="M39.5876 35.7658H35.4633V31.5081C35.4633 31.274 35.2778 31.0824 35.0509 31.0824H32.5764C32.3496 31.0824 32.164 31.274 32.164 31.5081V35.7658H28.0397C27.8129 35.7658 27.6273 35.9574 27.6273 36.1916V38.7462C27.6273 38.9804 27.8129 39.172 28.0397 39.172H32.164V43.4297C32.164 43.6638 32.3496 43.8554 32.5764 43.8554H35.0509C35.2778 43.8554 35.4633 43.6638 35.4633 43.4297V39.172H39.5876C39.8144 39.172 40 38.9804 40 38.7462V36.1916C40 35.9574 39.8144 35.7658 39.5876 35.7658ZM12.8574 21.2045C12.811 20.7415 12.7852 20.2732 12.7852 19.7995C12.7852 18.9533 12.8626 18.1284 13.0069 17.3247C13.043 17.1331 12.9451 16.9362 12.7749 16.8564C12.0738 16.5317 11.4294 16.0847 10.8726 15.5205C10.2166 14.8638 9.70031 14.0731 9.35679 13.1989C9.01328 12.3247 8.85005 11.3862 8.87753 10.4432C8.92393 8.73483 9.58896 7.11159 10.7489 5.8875C12.0223 4.54101 13.7338 3.80656 15.5536 3.82784C17.1982 3.84381 18.786 4.49843 19.9872 5.65865C20.3944 6.05249 20.745 6.4889 21.0389 6.95724C21.142 7.12223 21.343 7.19142 21.5183 7.12755C22.4256 6.8029 23.3845 6.57405 24.3692 6.46761C24.6579 6.43568 24.8228 6.11635 24.694 5.85025C23.0185 2.42813 19.5954 0.0651141 15.6361 0.00124876C9.92406 -0.0892271 5.16057 4.74857 5.16057 10.6455C5.16057 13.9878 6.65045 16.9681 8.98579 18.9213C7.34641 19.7037 5.83591 20.7841 4.52647 22.1359C1.70137 25.0471 0.103235 28.8897 0.000128909 32.993C-0.00124706 33.0498 0.00840417 33.1063 0.0285134 33.1592C0.0486227 33.2121 0.0787834 33.2603 0.117218 33.301C0.155653 33.3416 0.201585 33.374 0.252306 33.396C0.303028 33.4181 0.357513 33.4294 0.412552 33.4294H3.30467C3.52635 33.4294 3.71194 33.2485 3.71709 33.0196C3.81504 29.9328 5.02653 27.0429 7.15567 24.8502C8.67132 23.2855 10.5272 22.1998 12.5533 21.6729C12.7492 21.6143 12.8832 21.4174 12.8574 21.2045ZM36.082 19.7995C36.082 13.9771 31.5505 9.24575 25.9312 9.15528C20.2192 9.0648 15.4608 13.9026 15.4608 19.7995C15.4608 23.1418 16.9559 26.1222 19.2861 28.0754C17.6297 28.868 16.1218 29.9562 14.8319 31.2899C12.0068 34.2011 10.4087 38.0437 10.3055 42.1417C10.3042 42.1985 10.3138 42.255 10.3339 42.3079C10.354 42.3608 10.3842 42.409 10.4226 42.4497C10.4611 42.4903 10.507 42.5227 10.5577 42.5447C10.6084 42.5668 10.6629 42.5781 10.718 42.5781H13.6049C13.8266 42.5781 14.0122 42.3972 14.0174 42.1683C14.1153 39.0815 15.3268 36.1916 17.4559 33.9989C19.6779 31.705 22.6267 30.4437 25.7714 30.4437C31.4628 30.4437 36.082 25.6804 36.082 19.7995ZM30.4369 24.616C29.1894 25.904 27.5345 26.6118 25.7714 26.6118C24.0083 26.6118 22.3535 25.904 21.1059 24.616C20.4833 23.9767 19.9914 23.2148 19.6593 22.3755C19.3272 21.5363 19.1618 20.6368 19.1726 19.7303C19.1881 17.9847 19.8634 16.2975 21.044 15.0469C22.2813 13.7376 23.9361 13.0085 25.7044 12.9872C27.452 12.9712 29.1481 13.6737 30.3957 14.9351C31.6742 16.2284 32.3753 17.958 32.3753 19.7995C32.3702 21.6197 31.6845 23.3281 30.4369 24.616Z" fill="black"/>
</svg>
